# xmcd
#
# Track frame offsets: 
#        150
#        4378
#        6783
#        16314
#        136910
#        155083
#        161145
#        168156
#        175415
#        184103
#        192219
#        204613
#        211954
#        224871
#
# Disc length: 3123 seconds
#
# Revision: 0
# Processed by: cddbd v1.5.2PL0 Copyright (c) Steve Scherf et al.
# Submitted via: ExactAudioCopy v0.99pb5
#
DISCID=c90c310e
DTITLE=Dan Huckabee - Learn to Sing Bluegrass Harmony Volume Two
DYEAR=2007
DGENRE=Bluegrass
TTITLE0=Introduction
TTITLE1=Guitar Tuning
TTITLE2=Happy Birthday to You
TTITLE3=Roll in My Sweet Baby's Arms
TTITLE4=Rocky Top
TTITLE5=Mountain Dew
TTITLE6=Uncle Pen
TTITLE7=Pig in a Pen
TTITLE8=On and On
TTITLE9=Nobody's Love Is Like Mine
TTITLE10=White Dove
TTITLE11=Buckin' Mule
TTITLE12=Columbus Stockade Blues
TTITLE13=Take Your Shoes Off Moses
EXTD=
EXTT0=
EXTT1=
EXTT2=
EXTT3=
EXTT4=
EXTT5=
EXTT6=
EXTT7=
EXTT8=
EXTT9=
EXTT10=
EXTT11=
EXTT12=
EXTT13=
PLAYORDER=
